<?xml version="1.0" encoding="UTF-8"?>
<svg xmlns="http://www.w3.org/2000/svg" xmlns:xlink="http://www.w3.org/1999/xlink" width="841.89" height="595.276" viewBox="0 0 841.89 595.276">
<path fill-rule="nonzero" fill="rgb(100%, 100%, 100%)" fill-opacity="1" d="M 348.203125 327.070312 C 346.511719 327.070312 344.644531 326.898438 342.496094 326.550781 C 340.09375 326.15625 337.640625 325.339844 335.195312 324.125 C 332.753906 322.910156 330.359375 321.203125 328.089844 319.058594 C 325.746094 316.84375 323.65625 313.953125 321.886719 310.46875 C 320.195312 307.140625 318.824219 303.082031 317.820312 298.40625 C 316.835938 293.824219 316.335938 288.363281 316.335938 282.175781 L 316.335938 241.171875 C 316.335938 234.910156 316.863281 229.421875 317.90625 224.863281 C 318.96875 220.191406 320.449219 216.132812 322.296875 212.808594 C 324.238281 209.320312 326.5625 206.457031 329.195312 204.300781 C 331.71875 202.238281 334.398438 200.632812 337.167969 199.523438 C 339.839844 198.457031 342.546875 197.742188 345.214844 197.40625 C 347.605469 197.105469 349.878906 196.953125 351.976562 196.953125 C 357.410156 196.953125 362.15625 197.75 366.082031 199.324219 C 370.160156 200.960938 373.558594 203.28125 376.183594 206.214844 C 378.785156 209.128906 380.675781 212.554688 381.808594 216.398438 C 382.839844 219.925781 383.367188 223.699219 383.367188 227.613281 C 383.367188 230.378906 383.203125 232.976562 382.871094 235.339844 C 382.566406 237.546875 382.148438 239.996094 381.636719 242.617188 C 381.074219 245.496094 378.554688 247.570312 375.621094 247.570312 L 361.675781 247.570312 C 358.292969 247.570312 355.546875 244.828125 355.546875 241.441406 L 355.546875 235.953125 C 355.546875 232.921875 355.257812 223.039062 351.503906 223.039062 C 350.589844 223.039062 349.839844 223.164062 349.328125 223.402344 C 349.121094 223.5 348.867188 223.792969 348.621094 224.203125 C 348.273438 224.792969 347.773438 225.953125 347.402344 228.113281 C 347.039062 230.242188 346.851562 233.019531 346.851562 236.359375 L 346.851562 288.816406 C 346.851562 292.054688 347.035156 294.726562 347.398438 296.757812 C 347.78125 298.902344 348.289062 299.96875 348.558594 300.414062 C 348.714844 300.671875 348.949219 301 349.183594 301.109375 C 349.535156 301.269531 350.195312 301.460938 351.367188 301.460938 C 352.265625 301.460938 352.597656 301.21875 352.738281 301.117188 C 353.347656 300.671875 353.867188 300.015625 354.328125 299.109375 C 354.949219 297.894531 355.425781 296.375 355.742188 294.585938 C 356.105469 292.546875 356.289062 290.289062 356.289062 287.867188 L 356.289062 278.882812 L 353.457031 278.882812 C 350.070312 278.882812 347.328125 276.136719 347.328125 272.753906 L 347.328125 261.230469 C 347.328125 257.847656 350.070312 255.101562 353.457031 255.101562 L 379.394531 255.101562 C 382.78125 255.101562 385.523438 257.847656 385.523438 261.230469 L 385.523438 319.855469 C 385.523438 323.242188 382.78125 325.984375 379.394531 325.984375 L 367.808594 325.984375 C 365.503906 325.984375 363.457031 324.707031 362.410156 322.769531 C 362.179688 322.933594 361.945312 323.097656 361.710938 323.25 C 357.847656 325.785156 353.304688 327.070312 348.203125 327.070312 "/>
<path fill-rule="nonzero" fill="rgb(100%, 100%, 100%)" fill-opacity="1" d="M 132.609375 301.492188 L 132.609375 272.199219 C 134.210938 272.273438 135.542969 272.507812 136.578125 272.898438 C 137.597656 273.28125 138.367188 273.785156 138.929688 274.433594 C 139.539062 275.132812 139.980469 276.046875 140.285156 277.222656 C 140.691406 278.816406 140.898438 280.734375 140.898438 282.917969 L 140.898438 291.933594 C 140.898438 293.898438 140.65625 295.550781 140.175781 296.839844 C 139.761719 297.945312 139.230469 298.792969 138.558594 299.425781 C 137.851562 300.089844 137.003906 300.570312 135.96875 300.902344 C 134.972656 301.222656 133.847656 301.417969 132.609375 301.492188 M 139.351562 233.785156 L 139.351562 238.527344 C 139.351562 240.46875 139.117188 242.0625 138.652344 243.269531 C 138.269531 244.253906 137.785156 244.996094 137.167969 245.535156 C 136.46875 246.144531 135.605469 246.597656 134.527344 246.910156 C 133.929688 247.085938 133.289062 247.222656 132.609375 247.324219 L 132.609375 223.203125 C 133.527344 223.324219 134.332031 223.515625 135.015625 223.769531 C 136.035156 224.148438 136.796875 224.648438 137.347656 225.292969 C 137.980469 226.03125 138.433594 226.960938 138.738281 228.140625 C 139.144531 229.707031 139.351562 231.605469 139.351562 233.785156 M 160.15625 258.210938 C 161.179688 257.1875 162.140625 256.066406 163.027344 254.851562 C 164.824219 252.394531 166.28125 249.550781 167.351562 246.398438 C 168.441406 243.199219 168.992188 239.683594 168.992188 235.953125 L 168.992188 230.328125 C 168.992188 225.601562 168.332031 221.410156 167.03125 217.875 C 165.703125 214.269531 163.863281 211.164062 161.558594 208.636719 C 159.265625 206.128906 156.546875 204.101562 153.472656 202.613281 C 150.675781 201.261719 147.6875 200.226562 144.582031 199.535156 C 141.636719 198.886719 138.582031 198.453125 135.5 198.253906 C 132.582031 198.0625 129.726562 197.96875 127.019531 197.96875 L 109.371094 197.96875 C 105.984375 197.96875 103.242188 200.710938 103.242188 204.097656 L 103.242188 319.855469 C 103.242188 323.242188 105.984375 325.984375 109.371094 325.984375 L 127.695312 325.984375 C 131.160156 325.984375 134.574219 325.828125 137.839844 325.519531 C 141.304688 325.191406 144.628906 324.570312 147.71875 323.679688 C 150.972656 322.742188 154.015625 321.410156 156.757812 319.734375 C 159.691406 317.941406 162.257812 315.613281 164.378906 312.816406 C 166.480469 310.042969 168.113281 306.71875 169.242188 302.933594 C 170.328125 299.285156 170.878906 295.011719 170.878906 290.238281 L 170.878906 284.34375 C 170.878906 276.292969 169.078125 269.46875 165.523438 264.066406 C 164.019531 261.773438 162.226562 259.820312 160.15625 258.210938 "/>
<path fill-rule="nonzero" fill="rgb(100%, 100%, 100%)" fill-opacity="1" d="M 205.238281 202.105469 C 206.398438 200.660156 207.273438 198.988281 207.839844 197.125 C 208.347656 198.90625 209.082031 200.492188 210.039062 201.867188 C 210.351562 202.316406 210.722656 202.78125 211.164062 203.242188 C 211.121094 203.519531 211.101562 203.808594 211.101562 204.097656 L 211.101562 288.953125 C 211.101562 292.1875 210.921875 294.855469 210.554688 296.894531 C 210.167969 299.078125 209.671875 300.160156 209.414062 300.597656 C 209.226562 300.917969 209.039062 301.144531 208.902344 301.210938 C 208.046875 301.613281 206.117188 301.621094 205.359375 301.246094 C 205.355469 301.246094 205.207031 301.140625 204.980469 300.730469 C 204.738281 300.292969 204.28125 299.230469 203.957031 297.054688 C 203.644531 294.976562 203.488281 292.25 203.488281 288.953125 L 203.488281 204.097656 C 203.488281 204.03125 203.484375 203.964844 203.484375 203.898438 C 204.125 203.363281 204.707031 202.765625 205.238281 202.105469 M 236.898438 198.40625 C 237.15625 197.765625 237.375 197.101562 237.550781 196.410156 C 238.015625 194.609375 238.25 192.609375 238.25 190.476562 C 238.25 185.285156 237.078125 181.363281 234.660156 178.472656 C 232.011719 175.308594 227.847656 173.703125 222.285156 173.703125 C 219.707031 173.703125 217.53125 174.0625 215.625 174.796875 C 213.425781 175.648438 211.613281 176.96875 210.238281 178.707031 C 209.160156 180.070312 208.351562 181.679688 207.828125 183.5 C 207.246094 181.570312 206.378906 179.917969 205.21875 178.511719 C 202.589844 175.324219 198.425781 173.703125 192.84375 173.703125 C 190.277344 173.703125 188.101562 174.058594 186.1875 174.78125 C 183.949219 175.632812 182.109375 176.957031 180.726562 178.707031 C 179.453125 180.316406 178.554688 182.273438 178.0625 184.523438 C 177.679688 186.28125 177.484375 188.285156 177.484375 190.476562 C 177.484375 193.320312 177.875 195.863281 178.644531 198.074219 C 175.796875 198.601562 173.640625 201.097656 173.640625 204.097656 L 173.640625 284.277344 C 173.640625 290.378906 174.132812 295.710938 175.097656 300.125 C 176.097656 304.675781 177.492188 308.609375 179.246094 311.816406 C 181.09375 315.195312 183.277344 317.953125 185.734375 320.007812 C 188.089844 321.984375 190.597656 323.53125 193.191406 324.605469 C 195.726562 325.65625 198.3125 326.335938 200.882812 326.625 C 203.101562 326.875 205.179688 327.003906 207.058594 327.003906 C 208.933594 327.003906 211.019531 326.875 213.265625 326.625 C 215.847656 326.335938 218.453125 325.660156 221 324.613281 C 223.617188 323.542969 226.144531 322.003906 228.515625 320.035156 C 231.015625 317.96875 233.222656 315.203125 235.074219 311.816406 C 236.824219 308.613281 238.230469 304.675781 239.246094 300.117188 C 240.242188 295.675781 240.742188 290.347656 240.742188 284.277344 L 240.742188 204.097656 C 240.742188 201.519531 239.152344 199.3125 236.898438 198.40625 "/>
<path fill-rule="nonzero" fill="rgb(100%, 100%, 100%)" fill-opacity="1" d="M 284.535156 243.269531 C 284.535156 246.691406 284.289062 249.542969 283.804688 251.742188 C 283.4375 253.410156 282.882812 254.734375 282.199219 255.574219 C 281.652344 256.25 280.945312 256.710938 279.964844 257.023438 C 279.277344 257.246094 278.484375 257.414062 277.59375 257.535156 L 277.59375 223.226562 C 278.582031 223.351562 279.441406 223.527344 280.171875 223.761719 C 281.257812 224.109375 282.054688 224.574219 282.605469 225.175781 C 283.183594 225.808594 283.621094 226.71875 283.910156 227.875 C 284.324219 229.550781 284.535156 231.652344 284.535156 234.121094 Z M 317.445312 317.585938 L 300.867188 276.011719 C 304.703125 273.023438 307.757812 269.050781 309.992188 264.140625 C 312.859375 257.828125 314.3125 249.734375 314.3125 240.085938 L 314.3125 237.171875 C 314.3125 231.351562 313.65625 226.25 312.359375 222 C 311.03125 217.636719 309.191406 213.898438 306.890625 210.882812 C 304.546875 207.8125 301.792969 205.34375 298.703125 203.546875 C 295.847656 201.882812 292.832031 200.613281 289.742188 199.773438 C 286.785156 198.972656 283.78125 198.464844 280.820312 198.253906 C 278.09375 198.066406 275.558594 197.96875 273.285156 197.96875 L 254.355469 197.96875 C 250.96875 197.96875 248.222656 200.714844 248.222656 204.097656 L 248.222656 325.289062 C 248.222656 327.246094 249.15625 329.085938 250.734375 330.238281 C 251.796875 331.015625 253.066406 331.421875 254.355469 331.421875 C 254.976562 331.421875 255.601562 331.328125 256.210938 331.132812 L 273.320312 325.699219 C 275.867188 324.890625 277.59375 322.527344 277.59375 319.855469 L 277.59375 313.328125 L 283.460938 310.410156 L 287.515625 321.898438 C 288.382812 324.347656 290.695312 325.988281 293.296875 325.988281 L 311.753906 325.988281 C 313.789062 325.988281 315.6875 324.980469 316.828125 323.296875 C 317.96875 321.613281 318.199219 319.476562 317.445312 317.585938 "/>
<path fill-rule="nonzero" fill="rgb(100%, 100%, 100%)" fill-opacity="1" d="M 438.816406 299.902344 L 419.078125 299.902344 L 419.078125 272.511719 L 432.417969 272.511719 C 435.800781 272.511719 438.546875 269.769531 438.546875 266.382812 L 438.546875 252.558594 C 438.546875 249.171875 435.800781 246.429688 432.417969 246.429688 L 419.078125 246.429688 L 419.078125 224.054688 L 438.144531 224.054688 C 441.53125 224.054688 444.273438 221.308594 444.273438 217.925781 L 444.273438 204.097656 C 444.273438 200.710938 441.53125 197.96875 438.144531 197.96875 L 395.496094 197.96875 C 392.113281 197.96875 389.367188 200.710938 389.367188 204.097656 L 389.367188 328.914062 C 389.367188 330.585938 390.050781 332.183594 391.253906 333.339844 C 392.398438 334.4375 393.917969 335.042969 395.496094 335.042969 C 395.582031 335.042969 395.667969 335.042969 395.753906 335.039062 L 439.074219 333.226562 C 442.355469 333.089844 444.949219 330.390625 444.949219 327.101562 L 444.949219 306.03125 C 444.949219 302.648438 442.203125 299.902344 438.816406 299.902344 "/>
<path fill-rule="nonzero" fill="rgb(100%, 100%, 100%)" fill-opacity="1" d="M 636.179688 202.988281 C 635.644531 200.078125 633.109375 197.96875 630.152344 197.96875 L 610.078125 197.96875 C 607.117188 197.96875 604.582031 200.082031 604.046875 202.992188 L 583.730469 313.804688 L 583.730469 204.097656 C 583.730469 200.714844 580.988281 197.96875 577.601562 197.96875 L 560.152344 197.96875 C 556.769531 197.96875 554.023438 200.714844 554.023438 204.097656 L 554.023438 246.425781 L 545.601562 246.425781 L 545.601562 204.097656 C 545.601562 200.714844 542.855469 197.96875 539.46875 197.96875 L 522.023438 197.96875 C 518.636719 197.96875 515.890625 200.714844 515.890625 204.097656 L 515.890625 319.855469 C 515.890625 323.242188 518.636719 325.988281 522.023438 325.988281 L 539.46875 325.988281 C 542.855469 325.988281 545.601562 323.242188 545.601562 319.855469 L 545.601562 272.511719 L 554.023438 272.511719 L 554.023438 328.914062 C 554.023438 331.054688 555.140625 333.042969 556.96875 334.152344 C 557.945312 334.746094 559.046875 335.042969 560.152344 335.042969 C 561.121094 335.042969 562.089844 334.816406 562.976562 334.355469 L 580.425781 325.296875 C 581.703125 324.632812 582.683594 323.554688 583.230469 322.277344 C 583.460938 322.8125 583.761719 323.324219 584.144531 323.78125 C 585.308594 325.179688 587.035156 325.988281 588.851562 325.988281 L 606.574219 325.988281 C 609.617188 325.988281 612.199219 323.753906 612.636719 320.742188 L 612.898438 318.953125 L 626.089844 310.019531 L 627.730469 320.78125 C 628.191406 323.777344 630.761719 325.988281 633.792969 325.988281 L 651.441406 325.988281 C 653.261719 325.988281 654.988281 325.179688 656.152344 323.78125 C 657.316406 322.382812 657.800781 320.539062 657.472656 318.75 Z M 636.179688 202.988281 "/>
<path fill-rule="nonzero" fill="rgb(100%, 100%, 100%)" fill-opacity="1" d="M 716.996094 197.96875 L 699.613281 197.96875 C 696.226562 197.96875 693.484375 200.710938 693.484375 204.097656 L 693.484375 288.953125 C 693.484375 292.191406 693.300781 294.863281 692.9375 296.894531 C 692.550781 299.082031 692.054688 300.15625 691.796875 300.597656 C 691.609375 300.917969 691.417969 301.144531 691.28125 301.210938 C 690.429688 301.613281 688.492188 301.617188 687.742188 301.246094 C 687.738281 301.246094 687.589844 301.144531 687.363281 300.730469 C 687.121094 300.289062 686.664062 299.230469 686.339844 297.054688 C 686.027344 294.976562 685.871094 292.25 685.871094 288.953125 L 685.871094 204.097656 C 685.871094 200.710938 683.125 197.96875 679.738281 197.96875 L 662.152344 197.96875 C 658.769531 197.96875 656.023438 200.710938 656.023438 204.097656 L 656.023438 284.277344 C 656.023438 290.378906 656.515625 295.710938 657.480469 300.125 C 658.480469 304.675781 659.871094 308.609375 661.628906 311.816406 C 663.472656 315.191406 665.65625 317.949219 668.117188 320.011719 C 670.476562 321.988281 672.984375 323.535156 675.574219 324.605469 C 678.109375 325.65625 680.695312 326.335938 683.261719 326.625 C 685.484375 326.875 687.5625 327.003906 689.441406 327.003906 C 691.3125 327.003906 693.402344 326.875 695.648438 326.625 C 698.226562 326.335938 700.828125 325.660156 703.382812 324.613281 C 705.996094 323.546875 708.523438 322.003906 710.898438 320.035156 C 713.398438 317.96875 715.605469 315.203125 717.453125 311.820312 C 719.207031 308.617188 720.609375 304.679688 721.628906 300.117188 C 722.621094 295.675781 723.125 290.347656 723.125 284.277344 L 723.125 204.097656 C 723.125 200.710938 720.378906 197.96875 716.996094 197.96875 "/>
<path fill-rule="nonzero" fill="rgb(100%, 100%, 100%)" fill-opacity="1" d="M 764.105469 243.84375 L 759.070312 237.714844 C 758.335938 236.746094 757.675781 235.804688 757.101562 234.917969 C 756.621094 234.179688 756.214844 233.414062 755.878906 232.628906 C 755.585938 231.9375 755.351562 231.148438 755.1875 230.273438 C 755.011719 229.347656 754.921875 228.25 754.921875 227.007812 C 754.921875 225.488281 755.222656 224.378906 755.816406 223.710938 C 756.351562 223.101562 757.914062 223.039062 758.5625 223.039062 C 760.46875 223.039062 761.121094 223.601562 761.714844 224.710938 C 762.582031 226.335938 763.617188 229.601562 763.617188 235.953125 L 763.617188 241.441406 C 763.617188 242.292969 763.789062 243.105469 764.105469 243.84375 M 788.621094 277.617188 C 786.460938 272.753906 783.359375 267.65625 779.40625 262.464844 C 779.363281 262.40625 779.316406 262.347656 779.265625 262.289062 L 766.296875 246.507812 C 767.277344 247.179688 768.464844 247.570312 769.746094 247.570312 L 783.21875 247.570312 C 786.152344 247.570312 788.671875 245.496094 789.234375 242.617188 C 789.734375 240.058594 790.175781 237.71875 790.566406 235.589844 C 791.011719 233.128906 791.238281 230.449219 791.238281 227.617188 C 791.238281 224.125 790.738281 220.605469 789.757812 217.15625 C 788.683594 213.398438 786.824219 209.960938 784.230469 206.945312 C 781.601562 203.890625 778.113281 201.421875 773.867188 199.613281 C 769.730469 197.847656 764.648438 196.953125 758.765625 196.953125 C 753.84375 196.953125 749.320312 197.742188 745.320312 199.304688 C 741.207031 200.910156 737.671875 203.21875 734.816406 206.179688 C 731.988281 209.109375 729.804688 212.617188 728.328125 216.605469 C 726.886719 220.484375 726.15625 224.761719 726.15625 229.3125 C 726.15625 234.882812 727.199219 240.222656 729.253906 245.179688 C 731.210938 249.894531 734.003906 254.601562 737.554688 259.167969 C 737.601562 259.222656 737.644531 259.277344 737.691406 259.335938 L 755.785156 280.972656 C 757.253906 282.820312 758.457031 284.488281 759.363281 285.9375 C 760.203125 287.277344 760.871094 288.546875 761.339844 289.703125 C 761.769531 290.761719 762.078125 291.835938 762.25 292.882812 C 762.441406 294.070312 762.539062 295.414062 762.539062 296.882812 C 762.539062 298.703125 762.210938 300.050781 761.613281 300.675781 C 760.9375 301.378906 759.507812 301.527344 758.429688 301.527344 C 757.425781 301.527344 756.628906 301.375 756.117188 301.082031 C 755.835938 300.921875 755.414062 300.617188 754.984375 299.804688 C 754.429688 298.757812 754.007812 297.359375 753.734375 295.640625 C 753.40625 293.582031 753.238281 291.125 753.238281 288.34375 L 753.238281 282.714844 C 753.238281 279.332031 750.492188 276.585938 747.109375 276.585938 L 733.570312 276.585938 C 730.730469 276.585938 728.265625 278.53125 727.609375 281.289062 C 726.980469 283.910156 726.5 286.398438 726.183594 288.683594 C 725.855469 291.046875 725.6875 293.644531 725.6875 296.40625 C 725.6875 300.035156 726.1875 303.632812 727.164062 307.089844 C 728.242188 310.90625 730.136719 314.359375 732.789062 317.347656 C 735.453125 320.355469 738.984375 322.765625 743.28125 324.515625 C 747.441406 326.210938 752.585938 327.070312 758.5625 327.070312 C 763.492188 327.070312 768.035156 326.316406 772.070312 324.828125 C 776.226562 323.296875 779.851562 321.054688 782.835938 318.160156 C 785.847656 315.246094 788.179688 311.683594 789.777344 307.574219 C 791.328125 303.582031 792.113281 299.097656 792.113281 294.238281 C 792.113281 288.429688 790.9375 282.839844 788.621094 277.617188 "/>
<path fill-rule="nonzero" fill="rgb(100%, 100%, 100%)" fill-opacity="1" d="M 481.597656 243.269531 C 481.597656 246.691406 481.351562 249.542969 480.867188 251.742188 C 480.5 253.410156 479.945312 254.734375 479.261719 255.574219 C 478.714844 256.25 478.003906 256.710938 477.027344 257.023438 C 476.339844 257.246094 475.546875 257.414062 474.65625 257.535156 L 474.65625 223.226562 C 475.640625 223.351562 476.503906 223.527344 477.234375 223.761719 C 478.316406 224.109375 479.117188 224.574219 479.667969 225.175781 C 480.246094 225.808594 480.683594 226.71875 480.972656 227.875 C 481.386719 229.550781 481.597656 231.652344 481.597656 234.121094 Z M 514.507812 317.585938 L 497.929688 276.011719 C 501.765625 273.023438 504.820312 269.050781 507.054688 264.140625 C 509.921875 257.828125 511.375 249.734375 511.375 240.085938 L 511.375 237.171875 C 511.375 231.351562 510.71875 226.25 509.421875 222 C 508.09375 217.636719 506.253906 213.898438 503.953125 210.882812 C 501.609375 207.8125 498.855469 205.34375 495.765625 203.546875 C 492.910156 201.882812 489.898438 200.613281 486.804688 199.773438 C 483.847656 198.972656 480.84375 198.464844 477.878906 198.253906 C 475.152344 198.066406 472.621094 197.96875 470.347656 197.96875 L 451.417969 197.96875 C 448.03125 197.96875 445.285156 200.714844 445.285156 204.097656 L 445.285156 330.722656 C 445.285156 332.460938 446.023438 334.117188 447.316406 335.28125 C 448.449219 336.300781 449.910156 336.855469 451.417969 336.855469 C 451.628906 336.855469 451.84375 336.839844 452.0625 336.820312 L 469.171875 335.011719 C 472.292969 334.679688 474.65625 332.050781 474.65625 328.914062 L 474.65625 310.5 L 478.867188 305.726562 L 484.578125 321.898438 C 485.445312 324.347656 487.757812 325.988281 490.359375 325.988281 L 508.816406 325.988281 C 510.851562 325.988281 512.75 324.980469 513.890625 323.296875 C 515.03125 321.613281 515.261719 319.476562 514.507812 317.585938 "/>
<path fill-rule="nonzero" fill="rgb(12.548828%, 44.313049%, 71.765137%)" fill-opacity="1" d="M 132.238281 307.65625 C 134.574219 307.65625 136.695312 307.351562 138.605469 306.742188 C 140.515625 306.132812 142.152344 305.183594 143.523438 303.894531 C 144.894531 302.609375 145.949219 300.972656 146.691406 298.980469 C 147.429688 296.996094 147.800781 294.644531 147.800781 291.933594 L 147.800781 282.917969 C 147.800781 280.210938 147.53125 277.804688 146.992188 275.703125 C 146.453125 273.601562 145.570312 271.839844 144.332031 270.414062 C 143.097656 268.992188 141.492188 267.90625 139.515625 267.164062 C 137.539062 266.417969 135.113281 266.042969 132.238281 266.042969 L 127.253906 266.042969 L 127.253906 307.65625 Z M 130.621094 253.640625 C 132.957031 253.640625 135.089844 253.359375 137.023438 252.792969 C 138.953125 252.230469 140.605469 251.347656 141.972656 250.152344 C 143.34375 248.953125 144.398438 247.394531 145.140625 245.476562 C 145.882812 243.554688 146.253906 241.238281 146.253906 238.527344 L 146.253906 233.785156 C 146.253906 231.074219 145.984375 228.679688 145.445312 226.597656 C 144.90625 224.523438 144.015625 222.761719 142.785156 221.3125 C 141.546875 219.867188 139.929688 218.773438 137.933594 218.027344 C 135.933594 217.28125 133.496094 216.90625 130.621094 216.90625 L 127.253906 216.90625 L 127.253906 253.640625 Z M 110.140625 204.097656 L 127.792969 204.097656 C 130.394531 204.097656 133.089844 204.191406 135.878906 204.371094 C 138.660156 204.550781 141.378906 204.9375 144.03125 205.523438 C 146.679688 206.109375 149.191406 206.980469 151.574219 208.128906 C 153.953125 209.285156 156.03125 210.832031 157.804688 212.773438 C 159.582031 214.714844 160.996094 217.121094 162.050781 219.992188 C 163.105469 222.859375 163.632812 226.304688 163.632812 230.328125 L 163.632812 235.953125 C 163.632812 239.023438 163.195312 241.847656 162.320312 244.425781 C 161.445312 247 160.289062 249.269531 158.851562 251.234375 C 157.414062 253.199219 155.773438 254.828125 153.933594 256.117188 C 152.089844 257.402344 150.203125 258.273438 148.273438 258.722656 L 148.273438 259.265625 C 153.976562 260.304688 158.277344 263.027344 161.175781 267.433594 C 164.074219 271.839844 165.523438 277.476562 165.523438 284.34375 L 165.523438 290.238281 C 165.523438 294.441406 165.0625 298.089844 164.140625 301.1875 C 163.21875 304.28125 161.925781 306.921875 160.265625 309.113281 C 158.605469 311.308594 156.628906 313.101562 154.335938 314.503906 C 152.046875 315.902344 149.53125 317 146.792969 317.789062 C 144.050781 318.582031 141.132812 319.121094 138.03125 319.417969 C 134.933594 319.710938 131.746094 319.855469 128.464844 319.855469 L 110.140625 319.855469 Z M 110.140625 204.097656 "/>
<path fill-rule="nonzero" fill="rgb(12.548828%, 44.313049%, 71.765137%)" fill-opacity="1" d="M 223.054688 201.183594 C 219.554688 201.183594 217.152344 200.246094 215.847656 198.371094 C 214.542969 196.496094 213.894531 193.863281 213.894531 190.476562 C 213.894531 188.714844 214.039062 187.167969 214.332031 185.832031 C 214.625 184.5 215.117188 183.394531 215.816406 182.511719 C 216.511719 181.632812 217.441406 180.964844 218.609375 180.511719 C 219.777344 180.0625 221.257812 179.835938 223.054688 179.835938 C 226.738281 179.835938 229.300781 180.695312 230.738281 182.410156 C 232.175781 184.128906 232.894531 186.816406 232.894531 190.476562 C 232.894531 192.101562 232.726562 193.570312 232.386719 194.882812 C 232.050781 196.191406 231.5 197.320312 230.738281 198.269531 C 229.972656 199.21875 228.960938 199.941406 227.707031 200.4375 C 226.449219 200.9375 224.898438 201.183594 223.054688 201.183594 M 193.617188 201.183594 C 190.113281 201.183594 187.695312 200.246094 186.375 198.371094 C 185.046875 196.496094 184.386719 193.863281 184.386719 190.476562 C 184.386719 188.714844 184.53125 187.167969 184.824219 185.832031 C 185.117188 184.5 185.609375 183.394531 186.304688 182.511719 C 187 181.632812 187.945312 180.964844 189.136719 180.511719 C 190.324219 180.0625 191.820312 179.835938 193.617188 179.835938 C 197.296875 179.835938 199.847656 180.695312 201.261719 182.410156 C 202.679688 184.128906 203.382812 186.816406 203.382812 190.476562 C 203.382812 192.101562 203.214844 193.570312 202.878906 194.882812 C 202.542969 196.191406 201.992188 197.320312 201.230469 198.269531 C 200.464844 199.21875 199.464844 199.941406 198.230469 200.4375 C 196.996094 200.9375 195.457031 201.183594 193.617188 201.183594 M 180.542969 204.097656 L 198.128906 204.097656 L 198.128906 288.953125 C 198.128906 292.566406 198.308594 295.570312 198.667969 297.964844 C 199.027344 300.359375 199.601562 302.269531 200.386719 303.691406 C 201.171875 305.117188 202.183594 306.132812 203.417969 306.742188 C 204.652344 307.351562 206.125 307.65625 207.832031 307.65625 C 209.535156 307.65625 211.03125 307.351562 212.3125 306.742188 C 213.59375 306.132812 214.644531 305.117188 215.476562 303.691406 C 216.308594 302.269531 216.9375 300.359375 217.363281 297.964844 C 217.789062 295.570312 218.003906 292.566406 218.003906 288.953125 L 218.003906 204.097656 L 235.386719 204.097656 L 235.386719 284.277344 C 235.386719 289.925781 234.9375 294.757812 234.039062 298.777344 C 233.140625 302.800781 231.949219 306.167969 230.46875 308.875 C 228.984375 311.589844 227.289062 313.734375 225.378906 315.316406 C 223.472656 316.898438 221.496094 318.105469 219.453125 318.941406 C 217.410156 319.777344 215.375 320.308594 213.355469 320.535156 C 211.335938 320.757812 209.492188 320.875 207.832031 320.875 C 206.167969 320.875 204.339844 320.757812 202.339844 320.535156 C 200.339844 320.308594 198.332031 319.777344 196.308594 318.941406 C 194.289062 318.105469 192.335938 316.898438 190.449219 315.316406 C 188.5625 313.734375 186.878906 311.589844 185.394531 308.875 C 183.914062 306.167969 182.734375 302.8125 181.859375 298.8125 C 180.984375 294.8125 180.542969 289.96875 180.542969 284.277344 Z M 180.542969 204.097656 "/>
<path fill-rule="nonzero" fill="rgb(12.548828%, 44.313049%, 71.765137%)" fill-opacity="1" d="M 274.867188 263.875 C 277.917969 263.875 280.503906 263.535156 282.613281 262.859375 C 284.722656 262.179688 286.429688 261.039062 287.734375 259.4375 C 289.035156 257.832031 289.980469 255.707031 290.5625 253.066406 C 291.144531 250.421875 291.4375 247.15625 291.4375 243.273438 L 291.4375 234.121094 C 291.4375 231.140625 291.167969 228.566406 290.632812 226.394531 C 290.089844 224.226562 289.183594 222.441406 287.902344 221.042969 C 286.621094 219.640625 284.925781 218.601562 282.816406 217.925781 C 280.703125 217.246094 278.054688 216.90625 274.867188 216.90625 L 272.238281 216.90625 L 272.238281 263.875 Z M 255.125 204.097656 L 274.058594 204.097656 C 276.210938 204.097656 278.582031 204.1875 281.164062 204.371094 C 283.75 204.550781 286.328125 204.992188 288.914062 205.691406 C 291.496094 206.390625 293.988281 207.441406 296.390625 208.84375 C 298.792969 210.242188 300.925781 212.164062 302.792969 214.605469 C 304.652344 217.042969 306.148438 220.105469 307.269531 223.789062 C 308.394531 227.46875 308.957031 231.929688 308.957031 237.171875 L 308.957031 240.085938 C 308.957031 248.898438 307.699219 256.070312 305.183594 261.605469 C 302.667969 267.140625 298.960938 271.125 294.066406 273.566406 L 312.527344 319.855469 L 294.066406 319.855469 L 278.773438 276.546875 L 272.238281 276.546875 L 272.238281 319.855469 L 255.125 325.289062 Z M 255.125 204.097656 "/>
<path fill-rule="nonzero" fill="rgb(12.548828%, 44.313049%, 71.765137%)" fill-opacity="1" d="M 348.976562 320.941406 C 347.628906 320.941406 346.054688 320.792969 344.257812 320.5 C 342.460938 320.207031 340.609375 319.585938 338.699219 318.636719 C 336.792969 317.6875 334.914062 316.34375 333.074219 314.605469 C 331.234375 312.867188 329.582031 310.5625 328.121094 307.691406 C 326.664062 304.824219 325.484375 301.300781 324.585938 297.117188 C 323.6875 292.941406 323.238281 287.957031 323.238281 282.175781 L 323.238281 241.171875 C 323.238281 235.34375 323.710938 230.359375 324.652344 226.226562 C 325.59375 222.09375 326.855469 218.613281 328.425781 215.789062 C 330 212.964844 331.804688 210.71875 333.847656 209.046875 C 335.890625 207.375 338.015625 206.097656 340.21875 205.214844 C 342.414062 204.335938 344.59375 203.757812 346.75 203.488281 C 348.90625 203.21875 350.90625 203.082031 352.746094 203.082031 C 357.417969 203.082031 361.359375 203.726562 364.570312 205.015625 C 367.78125 206.300781 370.386719 208.0625 372.386719 210.300781 C 374.382812 212.535156 375.824219 215.144531 376.699219 218.128906 C 377.574219 221.109375 378.011719 224.273438 378.011719 227.617188 C 378.011719 230.101562 377.867188 232.394531 377.574219 234.496094 C 377.28125 236.597656 376.890625 238.910156 376.394531 241.441406 L 362.449219 241.441406 L 362.449219 235.953125 C 362.449219 223.253906 359.058594 216.90625 352.273438 216.90625 C 350.433594 216.90625 348.839844 217.222656 347.492188 217.855469 C 346.144531 218.492188 345.023438 219.5625 344.125 221.074219 C 343.222656 222.589844 342.5625 224.589844 342.136719 227.074219 C 341.710938 229.558594 341.496094 232.65625 341.496094 236.359375 L 341.496094 288.816406 C 341.496094 292.429688 341.710938 295.4375 342.136719 297.828125 C 342.5625 300.226562 343.214844 302.144531 344.089844 303.589844 C 344.964844 305.039062 346.066406 306.066406 347.390625 306.675781 C 348.714844 307.285156 350.296875 307.589844 352.140625 307.589844 C 354.070312 307.589844 355.734375 307.082031 357.128906 306.066406 C 358.519531 305.046875 359.664062 303.660156 360.5625 301.898438 C 361.460938 300.136719 362.125 298.058594 362.550781 295.660156 C 362.976562 293.265625 363.191406 290.667969 363.191406 287.867188 L 363.191406 272.753906 L 354.230469 272.753906 L 354.230469 261.234375 L 380.167969 261.234375 L 380.167969 319.855469 L 368.578125 319.855469 L 366.695312 308.878906 C 364.492188 313.171875 361.964844 316.253906 359.113281 318.128906 C 356.261719 320.003906 352.882812 320.941406 348.976562 320.941406 "/>
<path fill-rule="nonzero" fill="rgb(12.548828%, 44.313049%, 71.765137%)" fill-opacity="1" d="M 396.269531 204.097656 L 438.917969 204.097656 L 438.917969 217.925781 L 413.71875 217.925781 L 413.71875 252.558594 L 433.191406 252.558594 L 433.191406 266.382812 L 413.71875 266.382812 L 413.71875 306.03125 L 439.589844 306.03125 L 439.589844 327.101562 L 396.269531 328.914062 Z M 396.269531 204.097656 "/>
<path fill-rule="nonzero" fill="rgb(12.548828%, 44.313049%, 71.765137%)" fill-opacity="1" d="M 471.925781 263.875 C 474.980469 263.875 477.566406 263.535156 479.675781 262.859375 C 481.785156 262.179688 483.492188 261.039062 484.796875 259.4375 C 486.097656 257.832031 487.042969 255.707031 487.625 253.066406 C 488.207031 250.421875 488.5 247.15625 488.5 243.273438 L 488.5 234.121094 C 488.5 231.140625 488.230469 228.566406 487.695312 226.394531 C 487.152344 224.226562 486.246094 222.441406 484.964844 221.042969 C 483.683594 219.640625 481.988281 218.601562 479.878906 217.925781 C 477.765625 217.246094 475.117188 216.90625 471.925781 216.90625 L 469.300781 216.90625 L 469.300781 263.875 Z M 452.1875 204.097656 L 471.121094 204.097656 C 473.273438 204.097656 475.644531 204.1875 478.226562 204.371094 C 480.808594 204.550781 483.390625 204.992188 485.976562 205.691406 C 488.558594 206.390625 491.050781 207.441406 493.453125 208.84375 C 495.855469 210.242188 497.988281 212.164062 499.855469 214.605469 C 501.714844 217.042969 503.210938 220.105469 504.332031 223.789062 C 505.457031 227.46875 506.019531 231.929688 506.019531 237.171875 L 506.019531 240.085938 C 506.019531 248.898438 504.757812 256.070312 502.246094 261.605469 C 499.730469 267.140625 496.023438 271.125 491.128906 273.566406 L 509.589844 319.855469 L 491.128906 319.855469 L 475.835938 276.546875 L 469.300781 276.546875 L 469.300781 328.914062 L 452.1875 330.726562 Z M 452.1875 204.097656 "/>
<path fill-rule="nonzero" fill="rgb(12.548828%, 44.313049%, 71.765137%)" fill-opacity="1" d="M 522.792969 204.097656 L 540.242188 204.097656 L 540.242188 252.558594 L 560.925781 252.558594 L 560.925781 204.097656 L 578.375 204.097656 L 578.375 319.855469 L 560.925781 328.914062 L 560.925781 266.382812 L 540.242188 266.382812 L 540.242188 319.855469 L 522.792969 319.855469 Z M 522.792969 204.097656 "/>
<path fill-rule="nonzero" fill="rgb(12.548828%, 44.313049%, 71.765137%)" fill-opacity="1" d="M 629.375 285.902344 L 621.292969 228.226562 L 620.550781 228.226562 L 612.398438 285.902344 Z M 610.847656 204.097656 L 630.925781 204.097656 L 652.214844 319.855469 L 634.5625 319.855469 L 631.398438 299.117188 L 610.378906 299.117188 L 607.347656 319.855469 L 589.625 319.855469 Z M 610.847656 204.097656 "/>
<path fill-rule="nonzero" fill="rgb(12.548828%, 44.313049%, 71.765137%)" fill-opacity="1" d="M 662.925781 204.097656 L 680.511719 204.097656 L 680.511719 288.953125 C 680.511719 292.566406 680.691406 295.570312 681.050781 297.964844 C 681.410156 300.359375 681.980469 302.269531 682.769531 303.691406 C 683.554688 305.117188 684.5625 306.132812 685.800781 306.742188 C 687.035156 307.351562 688.503906 307.65625 690.210938 307.65625 C 691.917969 307.65625 693.414062 307.351562 694.691406 306.742188 C 695.972656 306.132812 697.027344 305.117188 697.859375 303.691406 C 698.691406 302.269531 699.320312 300.359375 699.746094 297.964844 C 700.171875 295.570312 700.386719 292.566406 700.386719 288.953125 L 700.386719 204.097656 L 717.769531 204.097656 L 717.769531 284.277344 C 717.769531 289.925781 717.320312 294.757812 716.421875 298.777344 C 715.523438 302.800781 714.332031 306.167969 712.851562 308.875 C 711.367188 311.589844 709.671875 313.734375 707.761719 315.316406 C 705.851562 316.898438 703.878906 318.105469 701.835938 318.941406 C 699.789062 319.777344 697.757812 320.308594 695.738281 320.535156 C 693.714844 320.757812 691.875 320.875 690.210938 320.875 C 688.550781 320.875 686.722656 320.757812 684.722656 320.535156 C 682.722656 320.308594 680.714844 319.777344 678.691406 318.941406 C 676.671875 318.105469 674.71875 316.898438 672.828125 315.316406 C 670.945312 313.734375 669.261719 311.589844 667.777344 308.875 C 666.296875 306.167969 665.117188 302.8125 664.242188 298.8125 C 663.367188 294.8125 662.925781 289.96875 662.925781 284.277344 Z M 662.925781 204.097656 "/>
<path fill-rule="nonzero" fill="rgb(12.548828%, 44.313049%, 71.765137%)" fill-opacity="1" d="M 732.589844 296.40625 C 732.589844 293.921875 732.734375 291.628906 733.027344 289.527344 C 733.320312 287.425781 733.757812 285.15625 734.34375 282.714844 L 747.882812 282.714844 L 747.882812 288.34375 C 747.882812 291.460938 748.074219 294.214844 748.457031 296.609375 C 748.835938 299.007812 749.464844 301.027344 750.339844 302.675781 C 751.21875 304.324219 752.386719 305.566406 753.847656 306.402344 C 755.304688 307.238281 757.089844 307.65625 759.203125 307.65625 C 762.523438 307.65625 765.0625 306.742188 766.8125 304.914062 C 768.566406 303.082031 769.441406 300.40625 769.441406 296.878906 C 769.441406 295.074219 769.316406 293.414062 769.070312 291.898438 C 768.824219 290.386719 768.398438 288.882812 767.789062 287.394531 C 767.183594 285.902344 766.363281 284.332031 765.332031 282.683594 C 764.296875 281.035156 762.972656 279.191406 761.355469 277.160156 L 743.167969 255.402344 C 739.933594 251.246094 737.441406 247.054688 735.6875 242.832031 C 733.9375 238.605469 733.058594 234.101562 733.058594 229.3125 C 733.058594 225.46875 733.65625 221.945312 734.847656 218.738281 C 736.035156 215.53125 737.753906 212.761719 740 210.4375 C 742.246094 208.109375 745.019531 206.300781 748.320312 205.011719 C 751.621094 203.726562 755.359375 203.082031 759.539062 203.082031 C 764.613281 203.082031 768.847656 203.804688 772.238281 205.25 C 775.628906 206.695312 778.335938 208.59375 780.355469 210.941406 C 782.375 213.292969 783.800781 215.925781 784.632812 218.839844 C 785.464844 221.753906 785.882812 224.679688 785.882812 227.617188 C 785.882812 230.101562 785.6875 232.394531 785.308594 234.496094 C 784.925781 236.597656 784.488281 238.910156 783.992188 241.441406 L 770.519531 241.441406 L 770.519531 235.953125 C 770.519531 229.808594 769.644531 225.097656 767.890625 221.820312 C 766.140625 218.546875 763.289062 216.90625 759.335938 216.90625 C 756.058594 216.90625 753.609375 217.824219 751.992188 219.652344 C 750.375 221.480469 749.566406 223.933594 749.566406 227.007812 C 749.566406 228.632812 749.6875 230.101562 749.9375 231.414062 C 750.183594 232.722656 750.542969 233.929688 751.015625 235.039062 C 751.484375 236.144531 752.058594 237.21875 752.734375 238.257812 C 753.40625 239.296875 754.171875 240.382812 755.023438 241.511719 L 775.304688 266.179688 C 778.984375 271.015625 781.816406 275.65625 783.792969 280.109375 C 785.765625 284.558594 786.757812 289.269531 786.757812 294.238281 C 786.757812 298.351562 786.117188 302.054688 784.835938 305.351562 C 783.554688 308.652344 781.726562 311.453125 779.347656 313.757812 C 776.964844 316.0625 774.089844 317.835938 770.722656 319.078125 C 767.355469 320.320312 763.558594 320.941406 759.335938 320.941406 C 754.125 320.941406 749.804688 320.238281 746.367188 318.839844 C 742.929688 317.441406 740.191406 315.585938 738.148438 313.28125 C 736.105469 310.976562 734.667969 308.359375 733.835938 305.421875 C 733.003906 302.484375 732.589844 299.480469 732.589844 296.40625 "/>
<path fill-rule="nonzero" fill="rgb(100%, 100%, 100%)" fill-opacity="1" d="M 86.628906 347.535156 C 65.578125 347.535156 57.027344 340.15625 55.292969 335.796875 C 54.953125 334.949219 53.925781 332.363281 57.324219 329.148438 C 59.398438 327.1875 65.878906 322.621094 81.199219 322.621094 C 91.015625 322.621094 106.800781 324.597656 129.046875 333.171875 C 115.039062 342.820312 101.066406 347.535156 86.628906 347.535156 M 739.144531 316.207031 L 738.222656 313.984375 C 737.183594 311.460938 735.128906 309.445312 732.589844 308.453125 C 730.042969 307.460938 727.164062 307.550781 724.71875 308.695312 L 721.464844 310.199219 C 719.347656 311.179688 717.015625 312.261719 714.519531 313.414062 C 714.089844 311.140625 712.878906 309.007812 710.945312 307.453125 L 710.015625 306.617188 C 708.574219 305.164062 706.707031 304.191406 704.671875 303.816406 C 702.128906 302.242188 699.25 301.402344 696.28125 301.402344 C 689.367188 301.402344 683.554688 305.425781 679.878906 309.785156 C 677.414062 310.71875 674.960938 311.257812 672.734375 311.523438 C 672.441406 303.617188 666.082031 297.941406 657.398438 297.941406 C 655.464844 297.941406 653.503906 298.28125 651.53125 298.960938 C 649.894531 298.179688 648.066406 297.753906 646.144531 297.753906 C 641.878906 297.753906 638.402344 299.621094 631.996094 303.277344 C 629.300781 304.871094 625.609375 307.058594 621.972656 308.675781 C 621.847656 308.730469 621.726562 308.789062 621.601562 308.855469 C 615.339844 312.03125 609.734375 314.324219 604.988281 315.863281 C 605.074219 315.144531 605.121094 314.421875 605.121094 313.691406 C 605.121094 305.59375 598.542969 299.25 590.148438 299.25 C 581.609375 299.25 574.441406 303.449219 570.835938 310.257812 C 567.523438 311.425781 563.785156 312.53125 560.128906 313.484375 C 560.148438 311.574219 559.882812 309.746094 559.316406 308.070312 C 558.632812 306.042969 557.40625 303.957031 555.597656 302.207031 C 562.597656 293.652344 571.71875 284.304688 580.683594 277.847656 C 585.136719 274.632812 586.167969 268.371094 582.988281 263.894531 L 581.59375 261.929688 C 580.054688 259.761719 577.667969 258.269531 575.085938 257.839844 C 572.472656 257.394531 569.734375 258.023438 567.542969 259.585938 C 565.183594 261.285156 562.683594 263.273438 560.113281 265.488281 C 558.039062 259.617188 552.21875 255.828125 544.570312 255.828125 C 520.90625 255.828125 498.832031 273.726562 486.058594 290.492188 C 480.84375 297.363281 476.84375 304.324219 474.355469 310.84375 C 469.726562 313.007812 465.523438 314.65625 461.835938 315.847656 C 461.917969 315.136719 461.964844 314.417969 461.964844 313.691406 C 461.964844 306.875 457.304688 301.304688 450.824219 299.707031 C 452.097656 298.027344 452.851562 295.933594 452.851562 293.667969 C 452.851562 287.683594 449.050781 282.636719 442.5625 280.125 C 440.28125 279.285156 437.535156 278.710938 434.082031 278.375 C 433.710938 277.28125 433.15625 276.25 432.433594 275.339844 L 430.9375 273.460938 C 427.539062 269.199219 421.265625 268.441406 416.964844 271.757812 C 413.957031 274.070312 410.980469 276.554688 408.578125 278.601562 C 404.664062 278.851562 400.636719 279.140625 396.699219 279.425781 C 395.726562 279.476562 394.730469 279.550781 393.636719 279.636719 C 392.851562 279.695312 392.066406 279.757812 391.195312 279.804688 L 389.671875 279.902344 C 388.324219 279.984375 386.988281 280.070312 385.671875 280.148438 C 385.414062 278.402344 384.703125 276.730469 383.597656 275.34375 L 382.113281 273.476562 C 378.703125 269.183594 372.414062 268.429688 368.09375 271.785156 C 364.960938 274.214844 362.328125 276.363281 359.992188 278.402344 C 358.742188 277.84375 357.359375 277.539062 355.921875 277.539062 L 353.503906 277.539062 C 347.964844 277.539062 343.460938 282.046875 343.460938 287.582031 C 343.460938 289.585938 343.855469 291.464844 344.613281 293.167969 C 344.152344 293.652344 343.699219 294.136719 343.25 294.617188 C 338.234375 300.183594 334.246094 305.394531 331.355469 310.144531 C 323.492188 313.523438 312.046875 316.65625 303.367188 316.65625 C 303.191406 316.65625 303.019531 316.65625 302.847656 316.652344 C 302.964844 316.375 303.046875 316.089844 303.136719 315.804688 C 304.417969 315.554688 305.644531 315.082031 306.742188 314.359375 L 311.582031 311.171875 C 316.117188 308.183594 317.449219 302.015625 314.546875 297.414062 L 313.238281 295.351562 C 311.808594 293.09375 309.492188 291.476562 306.859375 290.90625 C 304.25 290.351562 301.472656 290.867188 299.238281 292.335938 L 294.394531 295.523438 C 292.359375 296.859375 290.976562 298.84375 290.324219 301.03125 C 288.636719 301.316406 287.003906 302.019531 285.609375 303.171875 C 285.414062 303.308594 283.507812 304.625 274.972656 308.289062 C 274.65625 308.394531 274.339844 308.515625 274.027344 308.65625 C 269.273438 310.808594 265.21875 312.589844 261.765625 314.058594 C 266.558594 307.242188 271.089844 298.507812 262.789062 291.832031 C 260.992188 290.382812 259.035156 289.570312 256.984375 289.257812 C 261.34375 279.871094 262.230469 274.210938 260.460938 269.351562 C 259.222656 265.949219 256.710938 263.355469 253.441406 262.074219 C 249.257812 260.394531 244.953125 260.820312 240.601562 262.648438 C 245.023438 249.703125 245.910156 238.566406 237.097656 233.207031 C 225.101562 226.015625 214.664062 238.042969 197.40625 257.941406 C 191.542969 264.621094 185.585938 272.300781 179.824219 279.722656 L 179.484375 280.15625 C 169.714844 292.671875 159.644531 305.566406 148.386719 316.804688 C 124.238281 306.207031 102.453125 300.65625 83.5625 300.289062 C 60.746094 299.878906 48.238281 307.039062 41.757812 313.152344 C 32.84375 321.554688 29.957031 333.449219 34.222656 344.191406 C 41.796875 363.261719 66.257812 370.058594 86.628906 370.058594 C 109.644531 370.058594 131.207031 361.398438 152.410156 343.609375 C 153.925781 344.378906 155.472656 345.175781 157.0625 345.992188 L 157.292969 346.109375 C 159.664062 347.332031 162.472656 347.558594 165.011719 346.722656 C 167.554688 345.890625 169.691406 344.042969 170.878906 341.652344 L 171.996094 339.40625 C 174.078125 335.21875 172.925781 330.199219 169.496094 327.277344 C 174.5 321.933594 179.289062 316.359375 183.988281 310.632812 L 188.992188 314.753906 C 188.039062 316.210938 187.117188 317.574219 186.238281 318.8125 L 186.113281 318.984375 C 186.113281 318.984375 186.109375 318.988281 186.105469 318.992188 C 184.484375 320.824219 183.5625 323.257812 183.5625 325.765625 C 183.5625 328.988281 185.125 332.035156 187.746094 333.917969 L 189.707031 335.328125 C 194.113281 338.484375 200.164062 337.609375 203.488281 333.332031 C 204.867188 331.5625 206.21875 329.835938 207.546875 328.152344 C 207.996094 330.078125 209.003906 331.828125 210.476562 333.203125 L 212.085938 334.734375 C 214.058594 336.652344 216.796875 337.675781 219.609375 337.546875 C 222.480469 337.414062 225.148438 336.097656 226.921875 333.949219 L 226.988281 333.871094 C 227.511719 333.378906 228.035156 332.894531 228.554688 332.414062 C 229.308594 335.886719 231.292969 338.839844 234.363281 341.011719 C 241.871094 346.265625 251.019531 343.679688 279.316406 331.007812 C 282.855469 335.472656 289.863281 339.175781 303.367188 339.175781 C 311.765625 339.175781 320.546875 337.28125 327.183594 335.402344 C 330.203125 341.964844 337.085938 346.007812 346.152344 346.007812 C 349.851562 346.007812 356.691406 344.808594 376.5 336.363281 C 379.730469 342.359375 386.375 346.007812 394.992188 346.007812 C 397.25 346.007812 403.804688 346.007812 430.992188 333.910156 C 434.039062 337.066406 438.140625 339.304688 442.875 340.269531 C 450.976562 341.976562 461.640625 340.289062 474.65625 335.242188 C 478.160156 340.226562 484.328125 343.199219 492.101562 343.199219 C 500.691406 343.199219 513.558594 338.863281 524.6875 334.324219 C 525.585938 335.191406 526.605469 335.949219 527.734375 336.574219 C 531.484375 338.683594 535.578125 339.378906 539.707031 338.632812 C 541.214844 338.875 542.867188 338.988281 544.796875 338.988281 L 544.808594 338.988281 C 550.722656 338.902344 562.859375 336.328125 573.402344 333.074219 C 576.503906 336.675781 580.882812 339.21875 586.03125 340.269531 C 598.859375 342.976562 616.363281 336.339844 627.742188 330.957031 C 628.539062 332.660156 629.804688 334.121094 631.429688 335.160156 L 633.476562 336.46875 C 635.792969 337.949219 638.679688 338.40625 641.414062 337.71875 C 644.125 337.03125 646.441406 335.269531 647.773438 332.863281 L 647.859375 332.707031 C 648.476562 331.894531 649.453125 330.558594 650.542969 328.859375 C 650.855469 329.097656 651.179688 329.332031 651.511719 329.558594 C 655.980469 332.597656 661.9375 334.226562 668.515625 334.382812 L 666.878906 335.125 C 645.285156 344.792969 632.085938 358.855469 631.558594 372.738281 C 631.292969 379.78125 634.5 385.808594 640.085938 388.835938 C 642.570312 390.203125 645.265625 390.898438 648.09375 390.898438 C 661.492188 390.894531 674.867188 375.601562 694.582031 347.332031 C 710.160156 340.242188 725.507812 333.164062 734.105469 329.160156 C 738.996094 326.878906 741.207031 321.191406 739.144531 316.207031 "/>
<path fill-rule="nonzero" fill="rgb(11.764526%, 12.156677%, 11.372375%)" fill-opacity="1" d="M 298.753906 306.945312 C 299.015625 307.359375 299.433594 307.652344 299.910156 307.753906 C 300.039062 307.78125 300.167969 307.792969 300.296875 307.792969 C 300.648438 307.792969 301 307.691406 301.300781 307.496094 L 306.136719 304.3125 C 306.96875 303.765625 307.210938 302.652344 306.675781 301.8125 L 305.375 299.753906 C 305.113281 299.339844 304.695312 299.046875 304.21875 298.945312 C 303.742188 298.84375 303.238281 298.933594 302.828125 299.203125 L 297.992188 302.386719 C 297.160156 302.933594 296.917969 304.046875 297.453125 304.886719 Z M 298.753906 306.945312 "/>
<path fill-rule="nonzero" fill="rgb(11.764526%, 12.156677%, 11.372375%)" fill-opacity="1" d="M 678.1875 345.71875 C 668.992188 358.613281 653.046875 379.660156 646.925781 376.378906 C 645.847656 375.78125 645.296875 374.507812 645.367188 372.785156 C 645.605469 366.984375 652.898438 357.066406 672.679688 348.195312 C 674.371094 347.410156 676.140625 346.625 677.953125 345.820312 C 678.03125 345.789062 678.109375 345.753906 678.1875 345.71875 M 145.175781 331.027344 C 125.972656 347.660156 106.796875 355.753906 86.628906 355.753906 C 62.859375 355.753906 50.910156 347.015625 47.65625 338.835938 C 45.476562 333.363281 46.941406 327.65625 51.675781 323.175781 C 57.089844 318.058594 66.9375 314.402344 81.199219 314.402344 C 97.074219 314.402344 118.421875 318.9375 145.175781 331.027344 M 404.867188 293.207031 C 402.804688 295.269531 400.597656 297.554688 398.1875 300.125 C 392.726562 306.257812 388.671875 311.691406 386.117188 316.292969 C 376.84375 320.707031 352.390625 331.703125 346.152344 331.703125 C 340.550781 331.703125 339.792969 329.507812 339.792969 327.355469 C 339.792969 322.503906 344.941406 314.085938 353.921875 304.253906 C 357.140625 300.71875 360.203125 297.597656 363.253906 294.726562 C 365.304688 294.929688 367.769531 295.023438 371.085938 295.023438 C 377.023438 295.023438 383.902344 294.59375 391.1875 294.140625 L 392.109375 294.085938 C 393.011719 294.035156 393.933594 293.964844 394.855469 293.894531 C 395.746094 293.824219 396.636719 293.757812 397.535156 293.710938 Z M 443.273438 318.738281 C 441.253906 319.523438 439.855469 319.292969 439.621094 319.082031 C 439.996094 316.292969 442.386719 313.550781 446.992188 313.550781 C 447.441406 313.550781 447.652344 313.691406 447.675781 313.691406 C 447.675781 316.152344 445.304688 317.949219 443.273438 318.738281 M 494.664062 303.003906 C 495.554688 301.726562 496.511719 300.445312 497.46875 299.164062 C 508.1875 285.125 526.191406 270.132812 544.570312 270.132812 C 546.292969 270.132812 546.691406 270.457031 546.648438 270.457031 C 546.648438 278.285156 514.332031 306.625 499.082031 306.625 C 496.40625 306.625 495.121094 305.597656 494.664062 303.003906 M 538.660156 319.21875 C 539.507812 315.4375 542.71875 312.242188 544.289062 312.242188 C 545.570312 312.242188 545.699219 312.78125 545.78125 313.136719 C 546.335938 315.5 543.660156 321.082031 539.753906 323.5625 C 538.585938 322.660156 538.21875 321.203125 538.660156 319.21875 M 590.148438 313.550781 C 590.597656 313.550781 590.808594 313.691406 590.832031 313.691406 L 590.835938 313.691406 C 590.835938 316.152344 588.464844 317.949219 586.429688 318.738281 C 584.410156 319.523438 583.015625 319.292969 582.78125 319.082031 C 583.152344 316.292969 585.542969 313.550781 590.148438 313.550781 M 696.28125 315.703125 C 696.601562 315.703125 697.117188 315.703125 697.746094 316.382812 C 693.152344 320.988281 690.382812 322.851562 688.714844 323.476562 C 688.835938 320.234375 693.214844 315.703125 696.28125 315.703125 M 731.550781 319.355469 L 730.621094 317.109375 C 730.433594 316.652344 730.0625 316.289062 729.601562 316.109375 C 729.136719 315.925781 728.617188 315.941406 728.167969 316.152344 L 724.917969 317.65625 C 716.984375 321.332031 706.582031 326.148438 695.832031 331.007812 C 699.710938 325.4375 703.171875 320.507812 706.140625 316.34375 C 706.703125 315.554688 706.550781 314.464844 705.800781 313.859375 L 704.949219 313.171875 L 704.179688 312.402344 C 703.839844 312.058594 703.371094 311.867188 702.886719 311.867188 L 702.875 311.867188 C 702.558594 311.867188 702.25 311.953125 701.984375 312.105469 C 699.964844 310.09375 697.839844 309.621094 696.28125 309.621094 C 691.726562 309.621094 687.445312 313.011719 685.070312 316.515625 C 675.53125 320.902344 664.34375 320.800781 659.75 317.90625 C 657.738281 316.636719 657.738281 315.335938 657.738281 314.910156 C 657.738281 313.523438 658.125 312.792969 658.480469 312.390625 C 658.621094 313.261719 659.375 313.925781 660.285156 313.925781 L 662.703125 313.925781 C 663.710938 313.925781 664.527344 313.109375 664.527344 312.101562 C 664.527344 308.492188 661.730469 306.160156 657.402344 306.160156 C 655.171875 306.160156 652.722656 307.066406 650.089844 308.859375 C 649.570312 307.105469 648.089844 305.96875 646.144531 305.96875 C 644.175781 305.96875 642.042969 307.003906 636.191406 310.34375 C 633.324219 312.042969 629.390625 314.367188 625.320312 316.183594 C 609.914062 323.996094 596.316406 327.75 588.90625 326.214844 C 587.804688 326.007812 586.816406 325.636719 585.96875 325.132812 C 588.105469 324.746094 590.308594 323.808594 592.175781 322.414062 C 595.222656 320.136719 596.902344 317.039062 596.902344 313.691406 C 596.902344 310.144531 594 307.46875 590.148438 307.46875 C 582.769531 307.46875 578.382812 311.953125 577.078125 316.691406 C 567.785156 320.421875 554.394531 323.589844 547.476562 324.453125 C 550.980469 320.097656 552.792969 314.445312 551.527344 310.695312 C 550.957031 309 549.257812 306.160156 544.289062 306.160156 C 543.527344 306.160156 542.769531 306.300781 542.027344 306.554688 C 550.09375 294.800781 563.28125 280.253906 575.867188 271.191406 C 576.683594 270.605469 576.871094 269.46875 576.289062 268.652344 L 574.894531 266.6875 C 574.613281 266.289062 574.183594 266.023438 573.703125 265.941406 C 573.226562 265.863281 572.738281 265.976562 572.339844 266.261719 C 557.453125 276.957031 535.464844 301.492188 529.792969 316.523438 C 525.433594 318.527344 502.394531 328.898438 492.105469 328.898438 C 486.5 328.898438 485.742188 326.699219 485.742188 324.546875 C 485.742188 320.71875 487.589844 315.222656 490.871094 309.175781 C 492.730469 311.476562 495.546875 312.710938 499.082031 312.710938 C 515.125 312.710938 552.71875 283.09375 552.71875 270.457031 C 552.71875 266.445312 549.671875 264.046875 544.570312 264.046875 C 523.90625 264.046875 504.179688 280.273438 492.601562 295.460938 C 487.078125 302.738281 482.984375 310.265625 481.003906 316.761719 C 466.078125 324.171875 452.957031 327.703125 445.746094 326.214844 C 444.644531 326.007812 443.660156 325.636719 442.8125 325.132812 C 444.949219 324.746094 447.148438 323.808594 449.015625 322.414062 C 452.066406 320.136719 453.746094 317.039062 453.746094 313.691406 C 453.746094 310.144531 450.839844 307.46875 446.992188 307.46875 C 439.558594 307.46875 435.167969 312.007812 433.894531 316.792969 C 421.738281 322.507812 400.679688 331.703125 394.992188 331.703125 C 389.386719 331.703125 388.632812 329.507812 388.632812 327.355469 C 388.632812 322.503906 393.78125 314.085938 402.78125 304.230469 C 405.355469 301.300781 408.398438 298.1875 412.300781 294.464844 L 414.332031 292.652344 C 418.183594 292.476562 421.824219 292.308594 425.132812 292.308594 C 431.203125 292.308594 435.390625 292.742188 437.605469 293.59375 C 438.171875 293.808594 438.464844 293.972656 438.605469 294.070312 C 438.789062 294.882812 439.515625 295.492188 440.386719 295.492188 L 442.804688 295.492188 C 443.816406 295.492188 444.632812 294.671875 444.632812 293.664062 C 444.632812 292.199219 443.996094 289.492188 439.71875 287.835938 C 436.738281 286.738281 432.105469 286.226562 425.132812 286.226562 C 423.992188 286.226562 422.824219 286.242188 421.628906 286.265625 C 423.054688 285.09375 424.386719 284.03125 425.679688 283.046875 C 426.070312 282.746094 426.324219 282.304688 426.382812 281.820312 C 426.445312 281.332031 426.308594 280.839844 426 280.457031 L 424.511719 278.585938 C 423.890625 277.804688 422.761719 277.664062 421.972656 278.273438 C 418.300781 281.097656 414.675781 284.179688 411.84375 286.640625 C 407.09375 286.914062 402.09375 287.273438 397.128906 287.632812 C 396.226562 287.679688 395.296875 287.75 394.371094 287.824219 C 393.484375 287.890625 392.597656 287.960938 391.714844 288.007812 L 391.066406 288.046875 C 383.167969 288.542969 375.71875 289.03125 369.644531 288.925781 C 372.097656 286.808594 374.511719 284.835938 376.847656 283.039062 C 377.234375 282.742188 377.488281 282.300781 377.546875 281.816406 C 377.605469 281.328125 377.46875 280.839844 377.164062 280.457031 L 375.675781 278.585938 C 375.054688 277.804688 373.917969 277.667969 373.128906 278.28125 C 369.144531 281.371094 366.007812 283.988281 363.335938 286.441406 C 362.84375 286.835938 362.375 287.257812 361.910156 287.675781 C 361.683594 287.878906 361.457031 288.085938 361.226562 288.285156 C 359.054688 287.957031 358.039062 287.480469 357.714844 287.238281 C 357.550781 286.394531 356.8125 285.757812 355.921875 285.757812 L 353.503906 285.757812 C 352.496094 285.757812 351.675781 286.574219 351.675781 287.582031 C 351.675781 290.125 353.152344 292.011719 356.066406 293.222656 C 353.550781 295.714844 351.347656 297.980469 349.355469 300.117188 C 343.886719 306.191406 339.785156 311.710938 337.152344 316.539062 C 328.429688 320.722656 314.21875 324.875 303.367188 324.875 C 298.453125 324.875 290.214844 324.332031 290.214844 320.710938 C 290.214844 319.078125 290.980469 317.410156 294.789062 314.140625 C 295.546875 313.488281 295.640625 312.34375 294.992188 311.578125 L 293.414062 309.707031 C 292.765625 308.941406 291.535156 308.933594 290.757812 309.570312 C 289.722656 310.429688 286.628906 312.246094 277.78125 316.023438 C 277.65625 316.050781 277.535156 316.089844 277.414062 316.144531 C 250.046875 328.523438 243.765625 329.621094 242.574219 329.246094 C 242.292969 328.621094 242.640625 325.832031 252 313.472656 L 252.6875 312.550781 C 257.828125 305.667969 261.226562 301.121094 257.636719 298.234375 C 254.632812 295.816406 248.125 298.304688 238.238281 305.628906 C 241.125 301.367188 243.441406 297.597656 245.164062 294.351562 C 251.742188 282.285156 254.007812 275.648438 252.742188 272.160156 C 252.3125 270.988281 251.496094 270.136719 250.382812 269.699219 C 244.914062 267.507812 236.804688 272.886719 222.40625 288.308594 C 220.894531 289.945312 219.320312 291.695312 217.648438 293.582031 C 220.277344 288.535156 222.808594 283.410156 225.125 278.429688 C 235.996094 254.980469 238.316406 243.566406 232.871094 240.253906 C 227.582031 237.082031 221.554688 242.640625 203.582031 263.359375 C 197.882812 269.859375 191.996094 277.441406 186.308594 284.773438 L 185.980469 285.195312 C 174.886719 299.398438 163.425781 314.074219 150.097656 326.585938 C 95.390625 301.316406 61.191406 306.125 47.394531 319.132812 C 40.886719 325.265625 38.820312 333.5 41.859375 341.160156 C 45.828125 351.15625 59.675781 361.839844 86.628906 361.839844 C 109.042969 361.839844 130.15625 352.675781 151.140625 333.828125 C 154.300781 335.328125 157.480469 336.964844 160.828125 338.6875 L 161.050781 338.804688 C 161.484375 339.027344 161.988281 339.066406 162.453125 338.914062 C 162.917969 338.761719 163.304688 338.429688 163.519531 337.992188 L 164.636719 335.746094 C 165.082031 334.855469 164.707031 333.761719 163.820312 333.300781 C 161.234375 331.964844 158.578125 330.59375 155.964844 329.347656 C 168.566406 317.109375 179.761719 303.046875 191.050781 288.515625 C 196.550781 281.425781 202.40625 273.949219 208.195312 267.347656 C 220.082031 253.652344 227.292969 246.34375 229.648438 245.597656 C 230.082031 247.421875 229.085938 255.601562 219.675781 275.859375 C 211.585938 293.15625 200.558594 312.820312 192.890625 323.640625 L 192.707031 323.886719 C 192.574219 324.070312 192.46875 324.226562 192.316406 324.378906 C 191.972656 324.722656 191.78125 325.28125 191.78125 325.761719 C 191.78125 326.351562 192.066406 326.902344 192.539062 327.246094 L 194.496094 328.648438 C 195.292969 329.222656 196.398438 329.0625 197.003906 328.289062 C 208.757812 313.179688 218.800781 301.128906 226.851562 292.476562 C 239.277344 279.097656 244.800781 276.066406 246.96875 275.441406 C 246.265625 278.003906 244.046875 283.726562 239.90625 291.492188 C 233.691406 303.074219 221.054688 319.039062 215.976562 324.628906 C 215.652344 324.988281 215.480469 325.460938 215.503906 325.945312 C 215.527344 326.429688 215.742188 326.886719 216.101562 327.210938 L 217.804688 328.828125 C 218.527344 329.558594 219.941406 329.496094 220.597656 328.703125 L 220.988281 328.230469 C 233.457031 316.503906 245.039062 307.894531 250.859375 304.621094 C 249.894531 306.03125 248.648438 307.777344 247.125 309.785156 C 238.679688 320.984375 235.902344 326.347656 236.515625 330.285156 C 236.765625 331.910156 237.625 333.25 239.074219 334.277344 C 243.109375 337.101562 251.890625 334.394531 279.941406 321.71875 C 279.972656 321.703125 280.003906 321.6875 280.03125 321.675781 L 282.023438 320.792969 C 282.777344 320.460938 283.5 320.140625 284.183594 319.835938 C 284.160156 320.128906 284.144531 320.417969 284.144531 320.710938 C 284.144531 327.507812 290.613281 330.957031 303.367188 330.957031 C 313.03125 330.957031 325.078125 327.914062 334.03125 324.519531 C 333.824219 325.519531 333.722656 326.46875 333.722656 327.355469 C 333.722656 333.984375 338.253906 337.789062 346.152344 337.789062 C 351.039062 337.789062 363.375 333.355469 382.84375 324.605469 C 382.65625 325.5625 382.5625 326.480469 382.5625 327.355469 C 382.5625 333.984375 387.09375 337.789062 394.992188 337.789062 C 402.074219 337.789062 423.304688 328.449219 434.089844 323.484375 C 435.480469 327.898438 439.3125 331.15625 444.570312 332.230469 C 454.804688 334.386719 469.957031 328.65625 479.675781 324.179688 C 479.675781 324.300781 479.675781 324.425781 479.675781 324.546875 C 479.675781 331.179688 484.203125 334.980469 492.105469 334.980469 C 501.648438 334.980469 519.042969 327.9375 528.40625 323.816406 C 528.628906 326.945312 530.25 328.574219 531.765625 329.414062 C 534.234375 330.804688 536.859375 331.070312 539.582031 330.210938 C 540.976562 330.589844 542.613281 330.769531 544.6875 330.769531 C 550.480469 330.683594 565.996094 327.234375 577.164062 323.152344 C 578.285156 327.03125 581.480469 330.957031 587.726562 332.230469 C 600.144531 334.84375 620.027344 325.722656 628 321.683594 C 628.089844 321.636719 628.175781 321.582031 628.257812 321.523438 C 632.292969 319.683594 636.078125 317.519531 639.242188 315.648438 C 640.871094 314.707031 642.132812 314.003906 643.113281 313.480469 C 642.230469 315.28125 640.765625 317.78125 638.542969 321.019531 C 637.84375 321.960938 637.265625 322.839844 636.769531 323.601562 L 636.515625 323.992188 C 636.054688 324.589844 635.71875 325.097656 635.515625 325.414062 L 635.414062 325.566406 C 635.113281 325.941406 634.972656 326.425781 635.03125 326.910156 C 635.09375 327.453125 635.398438 327.941406 635.859375 328.238281 L 637.90625 329.546875 C 638.757812 330.09375 640.089844 329.777344 640.578125 328.894531 L 640.96875 328.179688 C 641.480469 327.539062 642.832031 325.757812 644.304688 323.332031 C 646.292969 320.730469 648.953125 317.441406 651.671875 315.140625 C 651.742188 318.191406 653.28125 320.824219 656.132812 322.761719 C 662.074219 326.800781 672.65625 327.246094 682.65625 324.046875 C 682.8125 327.425781 684.777344 329.835938 687.445312 329.835938 C 688.097656 329.835938 688.761719 329.75 689.460938 329.570312 C 688.011719 331.710938 686.558594 333.773438 685.035156 335.90625 L 670.234375 342.628906 C 648.25 352.472656 640.082031 364.796875 639.769531 373.050781 C 639.625 376.953125 641.1875 380.085938 644.054688 381.636719 C 645.328125 382.339844 646.667969 382.679688 648.09375 382.679688 C 657.914062 382.679688 671.34375 366.429688 689.125 340.785156 C 705.191406 333.480469 721.515625 325.960938 730.632812 321.707031 C 731.519531 321.296875 731.925781 320.257812 731.550781 319.355469 "/>
</svg>
